<svg xmlns="http://www.w3.org/2000/svg" viewBox="0 0 100 100">
      {/* Background */}
      <rect x="0" y="0" width="100" height="100" rx="5" ry="5" fill="rgb(200,200,200)" opacity="0.9" />
      {/* Wells */}
      <path
        d="M 10 10 L 30 10"
        stroke="rgb(130,130,130)"
        stroke-width="5"
        stroke-linecap="round"></path>
      <path
        d="M 40 10 L 60 10"
        stroke="rgb(130,130,130)"
        stroke-width="5"
        stroke-linecap="round"></path>
      <path
        d="M 70 10 L 90 10"
        stroke="rgb(130,130,130)"
        stroke-width="5"
        stroke-linecap="round"></path>
      
      {/* Bands */}
      {/* Lane 1 */}
      <path
        d="M 10 22 L 30 22"
        stroke="rgb(70,70,70)"
        stroke-width="2"
        stroke-linecap="round"></path>
      <path
        d="M 10 30 L 30 30"
        stroke="rgb(150,150,150)"
        stroke-width="2"
        stroke-linecap="round"></path>
      <path
        d="M 10 34 L 30 34"
        stroke="rgb(90,90,90)"
        stroke-width="3"
        stroke-linecap="round"></path>
        <path
        d="M 10 45 L 30 45"
        stroke="rgb(50,50,50)"
        stroke-width="1"
        stroke-linecap="round"></path>
        <path
        d="M 10 57 L 30 57"
        stroke="rgb(130,130,130)"
        stroke-width="4"
        stroke-linecap="round"></path>
        <path
        d="M 10 64 L 30 64"
        stroke="rgb(100,100,100)"
        stroke-width="2.5"
        stroke-linecap="round"></path>
        <path
        d="M 10 77 L 30 77"
        stroke="rgb(120,120,120)"
        stroke-width="1.5"
        stroke-linecap="round"></path>
        <path
        d="M 10 83 L 30 83"
        stroke="rgb(150,150,150)"
        stroke-width="1"
        stroke-linecap="round"></path>

      {/* Lane 2 */}
      <path
        d="M 40 20 L 60 20"
        stroke="rgb(70,70,70)"
        stroke-width="2"
        stroke-linecap="round"></path>
      <path
        d="M 40 65 L 60 65"
        stroke="rgb(150,150,150)"
        stroke-width="2"
        stroke-linecap="round"></path>
      <path
        d="M 40 75 L 60 75"
        stroke="rgb(90,90,90)"
        stroke-width="3"
        stroke-linecap="round"></path>

      {/* Lane 3 */}
      <path
        d="M 70 50 L 90 50"
        stroke="rgb(70,70,70)"
        stroke-width="3"
        stroke-linecap="round"></path>
      <path
        d="M 70 55 L 90 55"
        stroke="rgb(150,150,150)"
        stroke-width="4"
        stroke-linecap="round"></path>
      <path
        d="M 70 65 L 90 65"
        stroke="rgb(120,120,120)"
        stroke-width="1"
        stroke-linecap="round"></path>
      <path
        d="M 70 70 L 90 70"
        stroke="rgb(90,90,90)"
        stroke-width="1"
        stroke-linecap="round"></path>
    </svg>
